<?xml version="1.0" encoding="UTF-8"?>
<svg id="Layer_1" data-name="Layer 1" xmlns="http://www.w3.org/2000/svg" xmlns:xlink="http://www.w3.org/1999/xlink" viewBox="0 0 437.23 437.27">
  <defs>
    <style>
      .cls-1 {
        fill: url(#linear-gradient);
      }

      .cls-1, .cls-2 {
        stroke-width: 0px;
      }

      .cls-2 {
        fill: #000;
      }
    </style>
    <linearGradient id="linear-gradient" x1="293.48" y1="424.07" x2="143.9" y2="13.1" gradientUnits="userSpaceOnUse">
      <stop offset="0" stop-color="#9a73b8"/>
      <stop offset=".28" stop-color="#9c76b9"/>
      <stop offset=".54" stop-color="#a481bf"/>
      <stop offset=".79" stop-color="#b194c8"/>
      <stop offset="1" stop-color="#c2abd4"/>
    </linearGradient>
  </defs>
  <path class="cls-1" d="M437.23,218.61C437.23,97.88,339.35,0,218.61,0S0,97.88,0,218.61c0,24.02,3.93,47.11,11.09,68.74,4.84-1.05,9.89-2.22,14.72-3.26,0,0,0,0,0,0,.22-.05.44-.09.66-.14,2.64-.56,5.29-1.1,7.94-1.62.79-.15,1.58-.31,2.37-.46,3.04-.57,6.08-1.11,9.15-1.59.28-.04.56-.07.84-.12,2.75-.41,5.52-.76,8.3-1.05.83-.09,1.66-.17,2.49-.25,3.07-.28,6.16-.51,9.29-.6.03,0,.07,0,.1,0,3.54-.11,7.08-.14,10.62-.11,1.19,0,2.39.06,3.58.08,2.35.04,4.69.09,7.03.19,1.43.06,2.85.15,4.27.23,2.1.12,4.2.23,6.3.39,1.54.11,3.07.26,4.6.39,1.99.18,3.97.36,5.95.57,1.59.17,3.18.36,4.77.55,1.92.23,3.85.47,5.77.73,1.61.22,3.22.45,4.82.69,1.9.28,3.8.58,5.69.9,1.62.27,3.23.54,4.85.83,1.87.33,3.73.68,5.6,1.04,1.62.31,3.24.62,4.86.95.52.11,1.05.2,1.58.31.55.12,1.11.25,1.68.39,1.84.39,3.69.76,5.52,1.18,1.74.26,3.46.3,5.11-.07.45-.1.89-.26,1.33-.43.1-.04.2-.08.29-.13.42-.18.84-.38,1.25-.65.53-.34,1.05-.7,1.55-1.19,1.71-1.66,2.49-3.96,2.41-6.32-.04-1.13-.31-2.19-.68-3.19-.76-1.66-1.85-3.07-2.9-4.55-1.76-2.5-3.52-5-5.27-7.5-2.26-3.21-4.52-6.43-6.78-9.64-2.22-3.15-4.43-6.3-6.65-9.45-1.6-2.28-3.21-4.55-4.82-6.82-4.5-6.45-8.01-13.34-10.59-20.49-2.82-6.81-4.91-14.06-6.11-21.67-.76-4.84-1.14-9.65-1.15-14.41-.17-45.96,33.21-86.42,80.01-93.75,5.41-.85,10.77-1.22,16.07-1.14,0,0,0,0,0,0,0,0,0,0,.01,0,6.35.09,12.59.82,18.64,2.14,5.04,1.1,9.96,2.6,14.7,4.48,5.61,1.95,10.96,4.63,15.87,8.08.11.08.22.15.32.22.22.14.44.28.65.43.18.14.37.27.56.4.2.13.39.27.59.4.03.02.06.04.09.06.31.21.62.41.92.62.69.48,1.37.99,2.05,1.49.48.35.97.69,1.45,1.05.31.24.6.49.91.73.1.08.2.16.31.24,7.06,5.6,13.32,12.2,18.49,19.61,3.96,5.67,7.99,11.34,12.86,16.26,12.97,13.11,29.44,22.37,45.84,30.48,9.6,4.75,19.49,8.95,29.27,13.04.07.03.14.07.21.1.68.31,1.31.64,1.92.99.21.12.42.24.63.37.29.18.55.38.82.56.6.43,1.17.9,1.71,1.4.93.82,1.76,1.67,2.36,2.58.3.47.57.94.79,1.42.06.13.05.26.11.39.27.65.5,1.31.6,2,.01.1,0,.18,0,.28,0,.08.06.15.06.23.03.41.01.81-.02,1.21,0,.08,0,.16,0,.24,0,0,0,0,0,.01-.06.48-.16.95-.31,1.41-.01.04-.04.07-.05.11-.21.61-.5,1.2-.88,1.77-.19.28-.42.53-.64.8-.21.26-.43.51-.68.76-.32.32-.66.62-1.02.9-.3.24-.64.46-.98.68-.49.32-.99.62-1.51.89-.73.37-1.48.73-2.34,1.04-.06.02-.1.05-.15.07-5.01,1.5-10.2,2.34-15.44,2.8-.16.01-.33.02-.49.03-14.97,1.28-30.02,1-45.03.64-7.59-.18-15.19-.39-22.79-.43-.46,0-.92-.01-1.39-.02-2.34.01-4.51.03-6.4.05-1.11.01-2.12.03-3.03.05-1.3.03-2.35.06-3.13.11-1,.13-1.99.31-2.96.55-.37.09-.74.18-1.11.29-.48.15-.95.31-1.41.5-.89.37-1.76.77-2.57,1.26-.06.03-.12.06-.18.1-.75.46-1.46.98-2.13,1.55,0,0-.02.01-.02.02-.62.52-1.19,1.09-1.73,1.69-.08.09-.16.16-.24.25-.77.87-1.46,1.81-2.05,2.81-.09.15-.16.31-.25.47-.36.67-.63,1.32-.9,1.98-.21.53-.41,1.06-.56,1.58-1.78,6.16.38,12,3.12,17.79,5.48,11.21,28.53,58.49,37.43,79.15,5.15,11.94,18.15,43.18,19.57,51.11,1.72,7.58,2.6,15.48,2.48,23.6-.06,4.42-.43,8.76-1.05,13.02,64.5-38.01,107.81-108.15,107.81-188.44Z"/>
  <path class="cls-2" d="M390.2,196.01c-.01-.1,0-.18,0-.28-.11-.69-.33-1.36-.6-2-.05-.13-.05-.26-.11-.39-.22-.48-.48-.95-.79-1.42-.6-.91-1.43-1.76-2.36-2.58-.55-.5-1.11-.97-1.71-1.4-.27-.19-.53-.38-.82-.56-.21-.13-.42-.25-.63-.37-.61-.35-1.24-.68-1.92-.99-.07-.03-.14-.07-.21-.1-9.78-4.1-19.67-8.3-29.27-13.04-16.4-8.11-32.87-17.37-45.84-30.48-4.87-4.93-8.91-10.6-12.86-16.26-5.18-7.41-11.43-14.02-18.49-19.61-.1-.08-.2-.16-.31-.24-.31-.24-.6-.49-.91-.73-.48-.36-.96-.7-1.45-1.05-.68-.5-1.35-1.01-2.05-1.49-.31-.21-.62-.42-.92-.62-.03-.02-.06-.04-.09-.06-.2-.13-.39-.27-.59-.4-.19-.13-.37-.26-.56-.4-.21-.15-.43-.29-.65-.43-.11-.07-.22-.14-.32-.22-4.91-3.45-10.26-6.14-15.87-8.08-4.74-1.88-9.66-3.38-14.7-4.48-6.05-1.32-12.29-2.05-18.64-2.14,0,0,0,0-.01,0,0,0,0,0,0,0-5.29-.08-10.66.29-16.07,1.14-46.8,7.33-80.19,47.79-80.01,93.75.02,4.75.39,9.57,1.15,14.41,1.19,7.61,3.28,14.85,6.11,21.67,2.58,7.15,6.1,14.04,10.59,20.49,1.61,2.27,3.22,4.55,4.82,6.82,2.22,3.15,4.44,6.3,6.65,9.45,2.26,3.21,4.52,6.43,6.78,9.64,1.76,2.5,3.52,5,5.27,7.5,1.04,1.49,2.14,2.9,2.9,4.55.38,1,.64,2.06.68,3.19.08,2.36-.7,4.66-2.41,6.32-.5.49-1.03.85-1.55,1.19-.41.26-.83.46-1.25.65-.1.04-.19.09-.29.13-.44.17-.88.33-1.33.43-1.65.38-3.37.33-5.11.07-1.84-.41-3.68-.79-5.52-1.18-.56-.14-1.13-.27-1.68-.39-.52-.11-1.05-.2-1.58-.31-1.62-.33-3.24-.64-4.86-.95-1.86-.36-3.73-.71-5.6-1.04-1.61-.29-3.23-.56-4.85-.83-1.9-.31-3.79-.61-5.69-.9-1.61-.24-3.21-.47-4.82-.69-1.92-.26-3.84-.5-5.77-.73-1.59-.19-3.18-.38-4.77-.55-1.98-.21-3.97-.39-5.95-.57-1.53-.14-3.07-.28-4.6-.39-2.1-.16-4.2-.27-6.3-.39-1.42-.08-2.85-.17-4.27-.23-2.34-.1-4.69-.14-7.03-.19-1.19-.02-2.39-.07-3.58-.08-3.54-.02-7.08,0-10.62.11-.03,0-.07,0-.1,0-3.12.1-6.21.32-9.29.6-.83.08-1.66.16-2.49.25-2.78.3-5.55.64-8.3,1.05-.28.04-.56.07-.84.12-3.06.47-6.11,1.01-9.15,1.59-.79.15-1.58.3-2.37.46-2.65.52-5.3,1.06-7.94,1.62-.22.05-.44.09-.66.14,0,0,0,0,0,0-4.84,1.03-9.89,2.21-14.72,3.26-.02,0-.04,0-.06.01.53,1.59,1.11,3.16,1.67,4.74.26.74.51,1.49.78,2.22,2.35,6.38,5,12.62,7.91,18.7.17.35.35.7.52,1.05,1.34,2.74,2.72,5.46,4.17,8.14.2.37.4.74.6,1.1,4.97,9.1,10.57,17.81,16.74,26.07.01.02.02.03.04.05,2.02,2.69,4.1,5.34,6.23,7.93.15.18.3.37.46.55,6.59,7.96,13.73,15.45,21.37,22.4.12.11.24.21.36.32,2.35,2.13,4.74,4.2,7.18,6.22.33.28.67.55,1,.83,2.42,1.99,4.89,3.93,7.4,5.81.17.13.34.26.51.39,5.46,4.08,11.13,7.9,16.97,11.47.35.21.71.42,1.06.63,2.49,1.5,5.01,2.95,7.57,4.35.56.31,1.13.62,1.69.92,2.55,1.37,5.13,2.69,7.74,3.97.4.19.79.4,1.19.59,6.14,2.95,12.44,5.61,18.88,7.99.41.15.82.29,1.22.43,2.78,1.01,5.6,1.96,8.43,2.85.58.18,1.16.36,1.74.54,2.93.9,5.88,1.74,8.86,2.52.31.08.61.17.92.25,6.88,1.76,13.89,3.2,21.02,4.29.06,0,.12.02.18.02,3.46.53,6.95.97,10.46,1.33.24.02.48.05.72.07,7.28.73,14.65,1.15,22.12,1.15,1.96,0,3.89-.15,5.85-.2,2.13-.06,4.26-.1,6.37-.22,2.45-.14,4.88-.34,7.31-.56,1.86-.17,3.71-.36,5.56-.57,2.45-.28,4.89-.57,7.32-.93,1.8-.27,3.57-.6,5.35-.92,4.16-.73,8.28-1.57,12.36-2.53,1.83-.43,3.66-.84,5.47-1.32,2.26-.59,4.49-1.24,6.71-1.91,1.86-.56,3.72-1.14,5.56-1.74,2.12-.69,4.24-1.39,6.34-2.14,2.27-.82,4.5-1.72,6.74-2.61,2.94-1.17,5.84-2.41,8.72-3.71,2.12-.96,4.23-1.91,6.31-2.93,1.85-.9,3.67-1.85,5.48-2.81,1.92-1.01,3.83-2.06,5.72-3.12,1.16-.65,2.35-1.24,3.5-1.91,0-.04,0-.07.01-.11.62-4.26.98-8.6,1.05-13.02.12-8.12-.76-16.01-2.48-23.6-1.42-7.93-14.42-39.16-19.57-51.11-8.9-20.66-31.95-67.94-37.43-79.15-2.74-5.79-4.9-11.63-3.12-17.79.15-.52.35-1.05.56-1.58.26-.66.53-1.31.9-1.98.09-.15.16-.32.25-.47.59-1,1.28-1.94,2.05-2.81.08-.09.16-.17.24-.25.54-.6,1.11-1.17,1.73-1.69,0,0,.02-.01.02-.02.67-.57,1.38-1.09,2.13-1.55.06-.04.12-.06.18-.1.81-.49,1.68-.89,2.57-1.26.46-.19.93-.35,1.41-.5.37-.11.74-.2,1.11-.29.97-.24,1.95-.42,2.96-.55.78-.04,1.83-.08,3.13-.11.9-.02,1.92-.04,3.03-.05,1.89-.02,4.06-.04,6.4-.05.46,0,.93.02,1.39.02,7.6.04,15.19.25,22.79.43,15.01.36,30.06.64,45.03-.64.16-.01.33-.02.49-.03,5.25-.46,10.43-1.3,15.44-2.8.06-.02.1-.05.15-.07.86-.31,1.61-.67,2.34-1.04.52-.27,1.02-.57,1.51-.89.34-.22.68-.45.98-.68.36-.28.7-.59,1.02-.9.25-.25.47-.5.68-.76.22-.26.46-.51.64-.8.37-.57.67-1.17.88-1.77.01-.04.04-.07.05-.11.15-.47.25-.94.31-1.41,0,0,0,0,0-.01,0-.08,0-.16,0-.24.03-.4.05-.81.02-1.21,0-.08-.05-.15-.06-.23Z"/>
</svg>